<?xml version="1.0" encoding="UTF-8" standalone="no"?>
<svg
   xmlns:dc="http://purl.org/dc/elements/1.1/"
   xmlns:cc="http://creativecommons.org/ns#"
   xmlns:rdf="http://www.w3.org/1999/02/22-rdf-syntax-ns#"
   xmlns:svg="http://www.w3.org/2000/svg"
   xmlns="http://www.w3.org/2000/svg"
   xmlns:xlink="http://www.w3.org/1999/xlink"
   xmlns:sodipodi="http://sodipodi.sourceforge.net/DTD/sodipodi-0.dtd"
   xmlns:inkscape="http://www.inkscape.org/namespaces/inkscape"
   width="737.73944"
   height="530.93695"
   version="1.1"
   id="svg204"
   sodipodi:docname="customized-illustration-devices.svg"
   inkscape:version="0.92.5 (2060ec1f9f, 2020-04-08)">
  <metadata
     id="metadata208">
    <rdf:RDF>
      <cc:Work
         rdf:about="">
        <dc:format>image/svg+xml</dc:format>
        <dc:type
           rdf:resource="http://purl.org/dc/dcmitype/StillImage" />
        <dc:title></dc:title>
      </cc:Work>
    </rdf:RDF>
  </metadata>
  <sodipodi:namedview
     pagecolor="#ffffff"
     bordercolor="#666666"
     borderopacity="1"
     objecttolerance="10"
     gridtolerance="10"
     guidetolerance="10"
     inkscape:pageopacity="0"
     inkscape:pageshadow="2"
     inkscape:window-width="1920"
     inkscape:window-height="1016"
     id="namedview206"
     showgrid="false"
     showguides="true"
     inkscape:guide-bbox="true"
     inkscape:zoom="1.4142136"
     inkscape:cx="516.99989"
     inkscape:cy="190.33292"
     inkscape:window-x="0"
     inkscape:window-y="27"
     inkscape:window-maximized="1"
     inkscape:current-layer="svg204"
     inkscape:snap-global="false"
     fit-margin-top="0"
     fit-margin-left="0"
     fit-margin-right="0"
     fit-margin-bottom="0">
    <sodipodi:guide
       position="737.73827,216.96788"
       orientation="1,0"
       id="guide571"
       inkscape:locked="false" />
    <sodipodi:guide
       position="1003.8024,-22.768611"
       orientation="1,0"
       id="guide1552"
       inkscape:locked="false" />
  </sodipodi:namedview>
  <defs
     id="defs15">
    <rect
       id="a"
       width="597.55402"
       height="396.86099"
       x="0"
       y="0"
       rx="3" />
    <rect
       id="c"
       width="331"
       height="184"
       x="0"
       y="0"
       rx="5" />
    <rect
       id="h"
       width="167"
       height="341"
       x="0"
       y="0"
       rx="12" />
    <rect
       id="i"
       width="155"
       height="330"
       x="0"
       y="0"
       rx="9" />
    <rect
       id="k"
       width="140"
       height="184"
       x="0"
       y="0"
       rx="5" />
    <filter
       id="g"
       width="2.138"
       height="1.5569999"
       x="-0.53299999"
       y="-0.161"
       filterUnits="objectBoundingBox">
      <feOffset
         dx="6"
         dy="40"
         in="SourceAlpha"
         result="shadowOffsetOuter1"
         id="feOffset7" />
      <feGaussianBlur
         in="shadowOffsetOuter1"
         result="shadowBlurOuter1"
         stdDeviation="25"
         id="feGaussianBlur9" />
      <feColorMatrix
         in="shadowBlurOuter1"
         values="0 0 0 0 0.243459558 0 0 0 0 0.279312558 0 0 0 0 0.375398597 0 0 0 0.255293252 0"
         id="feColorMatrix11" />
    </filter>
    <path
       id="e"
       d="m 3,0 h 769.629 a 3,3 0 0 1 3,3 V 19.006 H 0 V 3 A 3,3 0 0 1 3,0 Z"
       inkscape:connector-curvature="0" />
    <mask
       fill="#fff"
       id="b">
      <use
         height="100%"
         width="100%"
         y="0"
         x="0"
         id="use23"
         xlink:href="#a" />
    </mask>
    <mask
       fill="#fff"
       id="f">
      <use
         height="100%"
         width="100%"
         y="0"
         x="0"
         id="use135"
         xlink:href="#e" />
    </mask>
  </defs>
  <g
     id="g1294"
     transform="translate(45.011002,45.691001)">
    <g
       transform="translate(50,15)"
       id="g194"
       style="fill:none;fill-rule:evenodd">
      <mask
         id="j"
         fill="#fff">
        <use
           xlink:href="#i"
           id="use154"
           x="0"
           y="0"
           width="100%"
           height="100%" />
      </mask>
      <g
         mask="url(#j)"
         id="g192">
        <path
           d="M 0,0 H 155 V 77 H 0 Z"
           id="path159"
           inkscape:connector-curvature="0"
           style="fill:#353740" />
        <g
           transform="translate(8,108)"
           id="g186">
          <mask
             id="l"
             fill="#fff">
            <use
               xlink:href="#k"
               id="use161"
               x="0"
               y="0"
               width="100%"
               height="100%" />
          </mask>
          <use
             xlink:href="#k"
             id="use164"
             style="fill:#ffffff"
             x="0"
             y="0"
             width="100%"
             height="100%" />
          <g
             mask="url(#l)"
             id="g184">
            <g
               transform="matrix(-1,0,0,1,293,32)"
               id="g182">
              <rect
                 width="184"
                 height="24"
                 x="17"
                 rx="12"
                 id="rect166"
                 y="0"
                 style="fill:#ff5e5e" />
              <rect
                 width="184"
                 height="24"
                 x="17"
                 y="96"
                 rx="12"
                 id="rect168"
                 style="fill:#ff5e5e" />
              <rect
                 width="24"
                 height="24"
                 x="209"
                 rx="12"
                 id="rect170"
                 y="0"
                 style="fill:#bc4747" />
              <rect
                 width="88"
                 height="24"
                 x="209"
                 y="32"
                 rx="12"
                 id="rect172"
                 style="fill:#ff5e5e" />
              <rect
                 width="114"
                 height="24"
                 x="87"
                 y="31.547001"
                 rx="12"
                 id="rect174"
                 style="fill:#bc4747" />
              <rect
                 width="50"
                 height="24"
                 x="247"
                 y="64.529999"
                 rx="12"
                 id="rect176"
                 style="fill:#ff5e5e" />
              <rect
                 width="79"
                 height="24"
                 y="63.924999"
                 rx="12"
                 id="rect178"
                 x="0"
                 style="fill:#ff5e5e" />
              <rect
                 width="24"
                 height="24"
                 x="305"
                 y="32"
                 rx="12"
                 id="rect180"
                 style="fill:#bc4747" />
            </g>
          </g>
        </g>
        <rect
           width="140"
           height="47"
           x="8"
           y="52"
           rx="5"
           id="rect188"
           style="fill:#ffffff" />
      </g>
    </g>
    <path
       id="path1537"
       d="M 692.72656,8.8300781 H 276.77344 c -6.648,0 -12,5.3519999 -12,11.9999999 V 430.83008 c 0,6.648 5.352,12 12,12 h 415.95312 z"
       style="fill:#191d36;fill-rule:nonzero"
       inkscape:connector-curvature="0" />
    <path
       id="path1532"
       d="M 692.72656,11.830078 H 277.77344 c -5.54,0 -10,4.46 -10,10 V 429.83008 c 0,5.54 4.46,10 10,10 h 414.95312 z"
       style="opacity:0.42300002;fill:#0b0e21;fill-rule:nonzero"
       inkscape:connector-curvature="0" />
    <path
       id="path1527"
       d="M 692.72656,24.830078 H 285.77344 c -2.77,0 -5,2.23 -5,5 V 421.83008 c 0,2.77 2.23,5 5,5 h 406.95312 z"
       style="fill:#16171b;fill-rule:nonzero"
       inkscape:connector-curvature="0" />
    <g
       transform="translate(283.77312,26.829841)"
       mask="url(#b)"
       id="g125"
       style="fill:none;fill-rule:evenodd">
      <path
         d="M 0,0 H 107 V 397 H 0 Z"
         id="path97"
         inkscape:connector-curvature="0"
         style="fill:#353740" />
      <g
         transform="translate(15,12)"
         id="g123">
        <rect
           width="77"
           height="5"
           y="68"
           rx="2.5"
           id="rect99"
           x="0"
           style="fill:#4a4e5d" />
        <rect
           width="77"
           height="5"
           y="87"
           rx="2.5"
           id="rect101"
           x="0"
           style="fill:#4a4e5d" />
        <rect
           width="77"
           height="5"
           y="106"
           rx="2.5"
           id="rect103"
           x="0"
           style="fill:#4a4e5d" />
        <rect
           width="77"
           height="5"
           y="125"
           rx="2.5"
           id="rect105"
           x="0"
           style="fill:#4a4e5d" />
        <rect
           width="77"
           height="5"
           y="144"
           rx="2.5"
           id="rect107"
           x="0"
           style="fill:#4a4e5d" />
        <rect
           width="77"
           height="5"
           y="366"
           rx="2.5"
           id="rect109"
           x="0"
           style="fill:#4a4e5d" />
        <g
           transform="translate(0,25)"
           id="g119">
          <g
             transform="translate(24,2)"
             id="g115">
            <rect
               width="53"
               height="5"
               rx="2.5"
               id="rect111"
               x="0"
               y="0"
               style="fill:#7b7f90" />
            <rect
               width="34"
               height="5"
               y="9"
               rx="2.5"
               id="rect113"
               x="0"
               style="fill:#4a4e5d" />
          </g>
          <circle
             cx="9"
             cy="9"
             r="9"
             id="circle117"
             style="fill:#ff5e5e" />
        </g>
        <rect
           width="77"
           height="9"
           rx="4.5"
           id="rect121"
           x="0"
           y="0"
           style="fill:#8c90a3" />
      </g>
    </g>
    <g
       style="opacity:0.09800002;fill:#4a5166;fill-rule:nonzero"
       id="g133"
       transform="translate(570.77312,16.829841)">
      <rect
         y="0"
         x="0"
         id="rect129"
         rx="2"
         height="4"
         width="15.64" />
      <rect
         y="0"
         id="rect131"
         rx="1.84"
         x="19.32"
         height="4"
         width="3.6800001" />
    </g>
    <path
       id="path1546"
       d="M 692.72656,456.83008 H 183.77344 a 7,7 0 0 0 7,7 h 501.95312 z"
       style="fill:#1a1c27;fill-rule:nonzero"
       inkscape:connector-curvature="0" />
    <path
       sodipodi:nodetypes="ccccssc"
       inkscape:connector-curvature="0"
       id="rect1575"
       d="m 186.08415,439.18228 506.64312,-8.9e-4 c 0.006,5.41729 -0.0126,17.62509 -0.0126,17.90038 0,0.0891 -509.01478,-0.0791 -509.01478,-0.0791 -6.5e-4,0 6.6e-4,-16.2401 6.6e-4,-16.2401 0,-0.87563 1.06305,-1.58056 2.3835,-1.58055 z"
       style="opacity:1;fill:#242942;fill-opacity:1;stroke:none;stroke-width:2.84153533;stroke-linecap:round" />
    <g
       transform="matrix(3.7795276,0,0,3.7878711,-274.90564,-101.4474)"
       id="g1445">
      <g
         id="g1062"
         transform="matrix(1,0,0,1.000216,-159.6664,-158.17927)"
         style="opacity:1">
        <path
           inkscape:connector-curvature="0"
           id="path833"
           d="M 415.68575,192.29868 H 308.81992 c -0.51823,0 -0.93586,0.41428 -0.93586,0.92837 v 102.27009 c 0,0.51409 0.41763,0.92786 0.93586,0.92786 h 106.86583 z"
           style="opacity:0.99700006;fill:#eaedf4;fill-opacity:1;stroke:none;stroke-width:1.0861969;stroke-linecap:round" />
        <g
           transform="matrix(1,0,0,0.99375282,160.60116,158.86789)"
           id="g1044">
          <g
             id="g1028"
             transform="translate(0.04572738,0.050026)">
            <path
               sodipodi:nodetypes="ccsscsc"
               inkscape:connector-curvature="0"
               id="rect21-3"
               d="m 174.98729,138.90873 0.4433,-105.509922 -27.64679,-0.01061 c -0.59152,-2.27e-4 -0.90311,0.296023 -0.90311,0.945863 V 138.26658 c 0,0.15325 0.17016,0.64215 0.56717,0.64215 z"
               style="opacity:0.99700006;fill:#343740;fill-opacity:1;stroke:none;stroke-width:1.31803417;stroke-linecap:round" />
            <rect
               rx="0.77931803"
               ry="0.63163078"
               y="55.170418"
               x="151.50766"
               height="1.3397774"
               width="20.347078"
               id="rect869"
               style="opacity:0.99700006;fill:#4c4f5e;fill-opacity:1;stroke:none;stroke-width:0.26346347;stroke-linecap:round" />
            <rect
               style="opacity:0.99700006;fill:#4c4f5e;fill-opacity:1;stroke:none;stroke-width:0.26346347;stroke-linecap:round"
               id="rect871"
               width="20.347078"
               height="1.3397774"
               x="151.50766"
               y="60.225155"
               ry="0.63163078"
               rx="0.77931803" />
            <rect
               rx="0.77931803"
               ry="0.63163078"
               y="65.275627"
               x="151.50766"
               height="1.3397774"
               width="20.347078"
               id="rect873"
               style="opacity:0.99700006;fill:#4c4f5e;fill-opacity:1;stroke:none;stroke-width:0.26346347;stroke-linecap:round" />
            <rect
               style="opacity:0.99700006;fill:#4c4f5e;fill-opacity:1;stroke:none;stroke-width:0.26346347;stroke-linecap:round"
               id="rect875"
               width="20.347078"
               height="1.3397774"
               x="151.50766"
               y="70.297997"
               ry="0.63163078"
               rx="0.77931803" />
            <rect
               rx="0.77931803"
               ry="0.63163078"
               y="75.349266"
               x="151.50766"
               height="1.3397774"
               width="20.347078"
               id="rect877"
               style="opacity:0.99700006;fill:#4c4f5e;fill-opacity:1;stroke:none;stroke-width:0.26346347;stroke-linecap:round" />
            <rect
               rx="0.77931803"
               ry="0.63163078"
               y="134.21034"
               x="151.37946"
               height="1.3397774"
               width="20.347078"
               id="rect925"
               style="opacity:0.99700006;fill:#4c4f5e;fill-opacity:1;stroke:none;stroke-width:0.26346347;stroke-linecap:round" />
          </g>
          <g
             id="g1019"
             transform="translate(0.10948551,0.02042613)">
            <rect
               style="opacity:1;fill:#8990a2;fill-opacity:1;stroke:none;stroke-width:0.35682169;stroke-linecap:round"
               id="rect843"
               width="20.474051"
               height="2.4422641"
               x="151.49652"
               y="37.239632"
               ry="1.221132" />
            <g
               style="fill:#0000ff"
               id="g851">
              <rect
                 style="opacity:0.99700006;fill:#8b91a4;fill-opacity:1;stroke:none;stroke-width:0.23390749;stroke-linecap:round"
                 id="rect845"
                 width="14.260034"
                 height="1.5068207"
                 x="157.74396"
                 y="44.288864"
                 ry="0.75341034" />
              <rect
                 ry="0.70329732"
                 y="46.811222"
                 x="157.84418"
                 height="1.4065946"
                 width="8.9981651"
                 id="rect847"
                 style="opacity:0.99700006;fill:#4c4e5b;fill-opacity:1;stroke:none;stroke-width:0.17952068;stroke-linecap:round" />
            </g>
            <circle
               style="opacity:0.99700006;fill:#fd5f5e;fill-opacity:1;stroke:none;stroke-width:0.37837839;stroke-linecap:round"
               id="circle867"
               cx="153.87672"
               cy="46.264744"
               r="2.6458335" />
          </g>
        </g>
      </g>
      <g
         id="g1012"
         transform="translate(-0.14393805,0.21624269)">
        <rect
           rx="0.77931803"
           ry="0.63163078"
           y="37.773285"
           x="181.82291"
           height="1.3397774"
           width="20.347078"
           id="rect879"
           style="opacity:0.99700006;fill:#cbcddc;fill-opacity:1;stroke:none;stroke-width:0.26346347;stroke-linecap:round" />
        <rect
           rx="2.8230839"
           ry="2.4271703"
           y="44.687965"
           x="181.68677"
           height="5.1483679"
           width="17.537445"
           id="rect881"
           style="opacity:0.99700006;fill:#8b90a3;fill-opacity:1;stroke:none;stroke-width:0.47948059;stroke-linecap:round" />
        <rect
           style="opacity:0.99700006;fill:#8b90a3;fill-opacity:1;stroke:none;stroke-width:0.32845965;stroke-linecap:round"
           id="rect883"
           width="8.2297812"
           height="5.1483679"
           x="201.60402"
           y="44.687965"
           ry="2.4271703"
           rx="2.2224767" />
        <rect
           rx="2.2224767"
           ry="2.4271703"
           y="44.687965"
           x="212.04782"
           height="5.1483679"
           width="8.2297812"
           id="rect885"
           style="opacity:0.99700006;fill:#8b90a3;fill-opacity:1;stroke:none;stroke-width:0.32845965;stroke-linecap:round" />
      </g>
      <g
         id="g995"
         transform="translate(-0.06387718,-0.16474126)">
        <path
           transform="scale(0.26458333)"
           sodipodi:nodetypes="csssscc"
           inkscape:connector-curvature="0"
           id="path919"
           d="M 965.38008,218.13672 H 692.76562 c -3.36357,0 -6.07031,2.70869 -6.07031,6.07226 v 34.87305 c 0,3.36357 2.70674,6.07031 6.07031,6.07031 h 272.47579 z"
           style="opacity:0.99700006;fill:#ffffff;fill-opacity:1;stroke:none;stroke-width:3.88010764;stroke-linecap:round" />
        <g
           style="fill:#0000ff"
           id="g891"
           transform="translate(28.068357,18.031196)">
          <rect
             style="opacity:0.99700006;fill:#b5b6ca;fill-opacity:1;stroke:none;stroke-width:0.23390749;stroke-linecap:round"
             id="rect887"
             width="14.260034"
             height="1.5068207"
             x="157.74396"
             y="44.288864"
             ry="0.75341034" />
          <rect
             ry="0.70329732"
             y="46.811222"
             x="157.84418"
             height="1.4065946"
             width="8.9981651"
             id="rect889"
             style="opacity:0.99700006;fill:#d4d7e6;fill-opacity:1;stroke:none;stroke-width:0.17952068;stroke-linecap:round" />
        </g>
        <g
           style="fill:#0000ff"
           transform="translate(48.046754,18.031196)"
           id="g897">
          <rect
             ry="0.75341034"
             y="44.288864"
             x="157.74396"
             height="1.5068207"
             width="14.260034"
             id="rect893"
             style="opacity:0.99700006;fill:#b5b6ca;fill-opacity:1;stroke:none;stroke-width:0.23390749;stroke-linecap:round" />
          <rect
             style="opacity:0.99700006;fill:#d4d7e6;fill-opacity:1;stroke:none;stroke-width:0.17952068;stroke-linecap:round"
             id="rect895"
             width="8.9981651"
             height="1.4065946"
             x="157.84418"
             y="46.811222"
             ry="0.70329732" />
        </g>
        <g
           style="fill:#0000ff"
           id="g903"
           transform="translate(75.040976,18.031196)">
          <rect
             style="opacity:0.99700006;fill:#b5b6ca;fill-opacity:1;stroke:none;stroke-width:0.23390749;stroke-linecap:round"
             id="rect899"
             width="14.260034"
             height="1.5068207"
             x="157.74396"
             y="44.288864"
             ry="0.75341034" />
          <rect
             ry="0.70329732"
             y="46.811222"
             x="157.84418"
             height="1.4065946"
             width="8.9981651"
             id="rect901"
             style="opacity:0.99700006;fill:#d4d7e6;fill-opacity:1;stroke:none;stroke-width:0.17952068;stroke-linecap:round" />
        </g>
        <g
           id="g980">
          <path
             style="opacity:0.99700006;fill:#d4d7e6;fill-opacity:1;stroke:none;stroke-width:0.27704772;stroke-linecap:round"
             d="m 255.30159,64.767291 h -2.60161 c -0.43174,0 -0.77928,0.311349 -0.77928,0.698285 v 0.08514 c 0,0.386936 0.34754,0.698284 0.77928,0.698284 h 2.60161 z"
             id="path910"
             inkscape:connector-curvature="0"
             sodipodi:nodetypes="csssscc" />
          <path
             sodipodi:nodetypes="csssscc"
             inkscape:connector-curvature="0"
             id="path912"
             d="m 255.27797,62.428571 h -2.60161 c -0.43174,0 -0.77928,0.301421 -0.77928,0.676019 v 0.08243 c 0,0.374598 0.34754,0.676018 0.77928,0.676018 h 2.60161 z"
             style="opacity:0.99700006;fill:#b5b6ca;fill-opacity:1;stroke:none;stroke-width:0.27259487;stroke-linecap:round" />
        </g>
      </g>
      <g
         id="g1006"
         transform="translate(-6.6993243e-7,-0.05720046)">
        <path
           style="opacity:0.99700006;fill:#ffffff;fill-opacity:1;stroke:none;stroke-width:1.0266118;stroke-linecap:round"
           d="m 255.32291,73.751515 h -72.12924 c -0.88995,0 -1.60611,0.71667 -1.60611,1.60661 v 45.630845 c 0,0.88994 0.71616,1.6061 1.60611,1.6061 h 72.09255 z"
           id="path923"
           inkscape:connector-curvature="0"
           sodipodi:nodetypes="csssscc" />
        <rect
           rx="3.1335726"
           ry="3.1115601"
           y="99.034958"
           x="238.37155"
           height="6.6000562"
           width="12.869249"
           id="rect865"
           style="opacity:0.99700006;fill:#ff5e5c;fill-opacity:1;stroke:none;stroke-width:0.44159314;stroke-linecap:round" />
        <rect
           style="opacity:0.99700006;fill:#be4647;fill-opacity:1;stroke:none;stroke-width:0.71610677;stroke-linecap:round"
           id="rect927"
           width="30.429842"
           height="6.6183505"
           x="195.75536"
           y="90.349754"
           ry="3.1201854"
           rx="3.258837" />
        <path
           sodipodi:nodetypes="ccssssc"
           inkscape:connector-curvature="0"
           id="rect929"
           d="m 181.54283,82.078606 v 6.618205 h 41.47309 c 1.80539,0 3.25871,-1.391641 3.25871,-3.120221 v -0.37776 c 0,-1.72858 -1.45332,-3.120224 -3.25871,-3.120224 z"
           style="opacity:0.99700006;fill:#ff5e5c;fill-opacity:1;stroke:none;stroke-width:0.71610677;stroke-linecap:round" />
        <rect
           rx="3.258837"
           ry="2.9001486"
           y="90.349754"
           x="228.36757"
           height="6.6183472"
           width="23.146748"
           id="rect931"
           style="opacity:0.99700006;fill:#ff5e5c;fill-opacity:1;stroke:none;stroke-width:0.71610677;stroke-linecap:round" />
        <path
           inkscape:connector-curvature="0"
           id="path960"
           d="m 255.32291,90.341511 a 3.0710565,3.7377437 0 0 0 -1.65364,3.312666 3.0710565,3.7377437 0 0 0 1.65364,3.313925 z"
           style="opacity:0.99700006;fill:#be4647;fill-opacity:1;stroke:none;stroke-width:0.48452088;stroke-linecap:round" />
        <circle
           style="opacity:0.99700006;fill:#be4647;fill-opacity:1;stroke:none;stroke-width:0.45945945;stroke-linecap:round"
           id="circle964"
           cx="231.58037"
           cy="85.413147"
           r="3.2127976" />
        <path
           style="opacity:0.99700006;fill:#ff5e5c;fill-opacity:1;stroke:none;stroke-width:0.71610677;stroke-linecap:round"
           d="m 181.54283,99.071323 v 6.618207 h 8.87264 c 1.80539,0 3.25871,-1.39164 3.25871,-3.12022 v -0.37776 c 0,-1.72858 -1.45332,-3.120227 -3.25871,-3.120227 z"
           id="path966"
           inkscape:connector-curvature="0"
           sodipodi:nodetypes="ccssssc" />
        <path
           style="opacity:0.99700006;fill:#ff5e5c;fill-opacity:1;stroke:none;stroke-width:0.71610677;stroke-linecap:round"
           d="m 181.54283,107.70635 v 6.6182 h 41.47309 c 1.80539,0 3.25871,-1.39164 3.25871,-3.12022 v -0.37776 c 0,-1.72858 -1.45332,-3.12022 -3.25871,-3.12022 z"
           id="path974"
           inkscape:connector-curvature="0"
           sodipodi:nodetypes="ccssssc" />
      </g>
    </g>
    <g
       id="g1176">
      <g
         style="fill:none;fill-rule:nonzero"
         id="g152"
         transform="translate(44,9.21)">
        <use
           height="100%"
           width="100%"
           y="0"
           x="0"
           style="fill:#000000;filter:url(#g)"
           id="use148"
           xlink:href="#h" />
        <use
           height="100%"
           width="100%"
           y="0"
           x="0"
           style="fill:#242942"
           id="use150"
           xlink:href="#h" />
      </g>
      <g
         id="g1149">
        <g
           id="g1126">
          <use
             transform="translate(50,15)"
             height="100%"
             width="100%"
             y="0"
             x="0"
             style="fill:#ebedf4;fill-rule:nonzero"
             id="use157"
             xlink:href="#i" />
          <rect
             ry="2.8475351"
             y="49.729607"
             x="75.186089"
             height="5.6950703"
             width="101.39622"
             id="rect1019"
             style="opacity:0.99700006;fill:#000000;fill-opacity:0;stroke:none;stroke-width:0.88405985;stroke-linecap:round" />
          <g
             id="g1077"
             transform="translate(203.96477,-25.5)">
            <path
               sodipodi:nodetypes="ssccsss"
               inkscape:connector-curvature="0"
               id="rect1012"
               d="m -144.42916,40.006032 c -5.53676,0 -9.99415,3.872016 -9.99415,8.679687 V 112.68377 H 1.4937681 V 48.685719 c 0,-4.807671 -4.45739,-8.679687 -9.99416,-8.679687 z"
               style="opacity:1;fill:#343740;fill-opacity:1;stroke:none;stroke-width:3.80761576;stroke-linecap:round" />
            <rect
               style="opacity:0.99700006;fill:#4c4e5b;fill-opacity:1;stroke:none;stroke-width:0.88405985;stroke-linecap:round"
               id="rect1021"
               width="101.39622"
               height="5.6950703"
               x="-127.16288"
               y="61.610802"
               ry="2.8475351" />
          </g>
          <g
             id="g1103"
             transform="translate(-0.92006203,-12)">
            <g
               transform="matrix(3.7795276,0,0,3.7795276,-313.84816,-202.94633)"
               id="g1755">
              <rect
                 y="88.696808"
                 x="98.442154"
                 height="48.752724"
                 width="37.263947"
                 id="rect23"
                 style="opacity:1;fill:#ffffff;fill-opacity:1;stroke:none;stroke-width:0.40205026;stroke-linecap:round"
                 ry="2.0377603"
                 rx="2.0238037" />
              <g
                 id="g1745"
                 transform="translate(2.6439248e-6,-0.01324948)">
                <path
                   sodipodi:nodetypes="ccssssc"
                   inkscape:connector-curvature="0"
                   id="path1310"
                   d="m 66.178963,198.61074 v 6.6182 h 9.400747 c 1.80539,0 3.25871,-1.39164 3.25871,-3.12022 v -0.37776 c 0,-1.72858 -1.45332,-3.12022 -3.25871,-3.12022 z"
                   style="opacity:0.99700006;fill:#ff5e5c;fill-opacity:1;stroke:none;stroke-width:0.71610677;stroke-linecap:round"
                   transform="rotate(180,100.94253,151.14639)" />
                <circle
                   style="opacity:0.99700006;fill:#be4647;fill-opacity:1;stroke:none;stroke-width:0.45945945;stroke-linecap:round"
                   id="circle1316"
                   cx="84.144157"
                   cy="201.94528"
                   r="3.2127976"
                   transform="rotate(180,100.94253,151.14639)" />
                <path
                   sodipodi:nodetypes="ccssssc"
                   inkscape:connector-curvature="0"
                   id="path1711"
                   d="m 135.7061,111.96065 v -6.6182 h -9.40075 c -1.80539,0 -3.25871,1.39164 -3.25871,3.12022 v 0.37776 c 0,1.72858 1.45332,3.12022 3.25871,3.12022 z"
                   style="opacity:0.99700006;fill:#be4647;fill-opacity:1;stroke:none;stroke-width:0.71610677;stroke-linecap:round" />
                <path
                   style="opacity:0.99700006;fill:#ff5e5c;fill-opacity:1;stroke:none;stroke-width:0.71610677;stroke-linecap:round"
                   d="m 135.7061,129.06407 v -6.6182 h -9.40075 c -1.80539,0 -3.25871,1.39164 -3.25871,3.12022 v 0.37776 c 0,1.72858 1.45332,3.12022 3.25871,3.12022 z"
                   id="path1719"
                   inkscape:connector-curvature="0"
                   sodipodi:nodetypes="ccssssc" />
                <path
                   sodipodi:nodetypes="ccsssssscc"
                   inkscape:connector-curvature="0"
                   id="rect1723"
                   d="m 98.469234,115.42863 v 4.06745 c 0.596035,0.75928 1.477216,1.27537 2.514056,1.27537 h 6.56054 c 1.8054,0 3.25872,-1.47104 3.25872,-3.29851 v -0.0212 c 0,-1.82747 -1.45332,-3.29851 -3.25872,-3.29851 h -6.56054 c -1.03684,0 -1.918021,0.51609 -2.514056,1.27538 z"
                   style="opacity:0.99700006;fill:#ff5d5e;fill-opacity:1;stroke:none;stroke-width:0.71610677;stroke-linecap:round" />
                <path
                   style="opacity:0.99700006;fill:#ff5d5e;fill-opacity:1;stroke:none;stroke-width:0.71610677;stroke-linecap:round"
                   d="m 98.327493,106.61783 v 4.06745 c 0.596035,0.75928 1.477216,1.27537 2.514057,1.27537 h 17.09663 c 1.8054,0 3.25872,-1.47104 3.25872,-3.29851 v -0.0212 c 0,-1.82747 -1.45332,-3.29851 -3.25872,-3.29851 h -17.09663 c -1.036841,0 -1.918022,0.51609 -2.514057,1.27538 z"
                   id="path1735"
                   inkscape:connector-curvature="0" />
              </g>
            </g>
            <g
               id="g1087">
              <rect
                 rx="7.6490221"
                 ry="7.7017713"
                 style="opacity:1;fill:#ffffff;fill-opacity:1;stroke:none;stroke-width:1.5195601;stroke-linecap:round"
                 id="rect1294"
                 width="140.84012"
                 height="46.628979"
                 x="58.000011"
                 y="76.371017" />
              <g
                 id="g1081">
                <rect
                   ry="2.8475351"
                   y="94.277336"
                   x="74.832512"
                   height="5.6950703"
                   width="101.39622"
                   id="rect1296"
                   style="opacity:0.99700006;fill:#b0b3c4;fill-opacity:1;stroke:none;stroke-width:0.88405985;stroke-linecap:round" />
                <rect
                   style="opacity:0.99700006;fill:#d4d7e6;fill-opacity:1;stroke:none;stroke-width:0.67850339;stroke-linecap:round"
                   id="rect1298"
                   width="64.008827"
                   height="5.3162584"
                   x="75.211296"
                   y="103.81066"
                   ry="2.6581292" />
              </g>
            </g>
          </g>
        </g>
      </g>
    </g>
  </g>
</svg>
